<svg width="594" height="472" viewBox="0 0 594 472" fill="none" xmlns="http://www.w3.org/2000/svg" xmlns:xlink="http://www.w3.org/1999/xlink">
<rect x="124" y="30" width="300" height="379" rx="10" fill="#293134"/>
<path d="M254.033 364.943L253.696 366.101H246.899L247.236 364.943H254.033ZM250.986 373L247.112 368.474L247.104 367.565H248.891C249.409 367.565 249.836 367.48 250.173 367.309C250.515 367.133 250.771 366.896 250.942 366.599C251.113 366.301 251.199 365.966 251.199 365.595C251.199 365.18 251.118 364.816 250.957 364.504C250.796 364.187 250.542 363.94 250.195 363.764C249.853 363.583 249.404 363.493 248.847 363.493H246.914L247.258 362.336H248.847C249.697 362.336 250.398 362.465 250.95 362.724C251.506 362.978 251.921 363.349 252.195 363.837C252.468 364.326 252.605 364.917 252.605 365.61C252.605 366.206 252.49 366.74 252.261 367.214C252.036 367.683 251.662 368.051 251.14 368.32C250.622 368.588 249.924 368.723 249.045 368.723L252.649 372.912V373H250.986ZM254.033 362.336L253.696 363.493H248.218L248.554 362.336H254.033Z" fill="#C7CBCB"/>
<path d="M246.584 374.465H254.341V375.197H246.584V374.465Z" fill="#C7CBCB"/>
<a href="https://www.amazon.in/Echo-Dot-3rd-Gen/dp/B07PFFMP9P/ref=sr_1_13_mod_new?hvadid=72499124504037&#38;hvbmt=be&#38;hvdev=c&#38;hvqmt=e&#38;keywords=-amazon&#38;qid=1684066242&#38;sbo=RZvfv%2F%2FHxDF%2BO5021pAnSA%3D%3D&#38;sr=8-13">
<rect fill="black" fill-opacity="0" x="7.58428" y="10.7109" width="7.75635" height="17.5781"/>
</a>
<path d="M262.412 362.321H262.529V363.471H262.412C261.694 363.471 261.093 363.588 260.61 363.823C260.127 364.052 259.743 364.362 259.46 364.753C259.177 365.139 258.972 365.573 258.845 366.057C258.723 366.54 258.662 367.031 258.662 367.529V369.096C258.662 369.57 258.718 369.99 258.83 370.356C258.943 370.717 259.096 371.022 259.292 371.271C259.487 371.521 259.707 371.708 259.951 371.835C260.2 371.962 260.459 372.026 260.727 372.026C261.04 372.026 261.318 371.967 261.562 371.85C261.806 371.728 262.011 371.56 262.177 371.345C262.348 371.125 262.478 370.866 262.566 370.568C262.653 370.271 262.697 369.943 262.697 369.587C262.697 369.27 262.658 368.964 262.58 368.671C262.502 368.374 262.382 368.11 262.221 367.88C262.06 367.646 261.858 367.463 261.613 367.331C261.374 367.194 261.089 367.126 260.757 367.126C260.381 367.126 260.029 367.219 259.702 367.404C259.38 367.585 259.113 367.824 258.903 368.122C258.698 368.415 258.581 368.735 258.552 369.082L257.834 369.074C257.903 368.527 258.029 368.061 258.215 367.675C258.405 367.285 258.64 366.967 258.918 366.723C259.201 366.474 259.516 366.293 259.863 366.181C260.215 366.064 260.586 366.005 260.976 366.005C261.508 366.005 261.967 366.105 262.353 366.306C262.739 366.506 263.056 366.774 263.305 367.111C263.554 367.443 263.737 367.819 263.855 368.239C263.977 368.654 264.038 369.082 264.038 369.521C264.038 370.024 263.967 370.495 263.825 370.935C263.684 371.374 263.471 371.76 263.188 372.092C262.91 372.424 262.566 372.683 262.155 372.868C261.745 373.054 261.269 373.146 260.727 373.146C260.151 373.146 259.648 373.029 259.218 372.795C258.789 372.556 258.432 372.238 258.149 371.843C257.866 371.447 257.653 371.008 257.512 370.524C257.37 370.041 257.299 369.55 257.299 369.052V368.415C257.299 367.663 257.375 366.926 257.527 366.203C257.678 365.48 257.939 364.826 258.31 364.24C258.686 363.654 259.206 363.188 259.87 362.841C260.534 362.495 261.382 362.321 262.412 362.321ZM267.776 371.389V372.48C267.776 372.924 267.664 373.393 267.439 373.886C267.215 374.384 266.9 374.799 266.494 375.131L265.725 374.597C265.882 374.382 266.013 374.162 266.121 373.938C266.228 373.718 266.309 373.488 266.362 373.249C266.421 373.015 266.45 372.766 266.45 372.502V371.389H267.776ZM271.456 371.865H271.595C272.376 371.865 273.011 371.755 273.499 371.535C273.987 371.315 274.363 371.02 274.627 370.649C274.891 370.278 275.071 369.86 275.169 369.396C275.267 368.928 275.316 368.447 275.316 367.954V366.32C275.316 365.837 275.259 365.407 275.147 365.031C275.04 364.655 274.888 364.34 274.693 364.086C274.503 363.833 274.285 363.64 274.041 363.508C273.797 363.376 273.538 363.31 273.265 363.31C272.952 363.31 272.672 363.374 272.423 363.5C272.178 363.623 271.971 363.796 271.8 364.021C271.634 364.245 271.507 364.509 271.419 364.812C271.331 365.114 271.287 365.444 271.287 365.8C271.287 366.118 271.326 366.425 271.404 366.723C271.483 367.021 271.602 367.29 271.763 367.529C271.924 367.768 272.125 367.958 272.364 368.1C272.608 368.237 272.894 368.305 273.221 368.305C273.524 368.305 273.807 368.247 274.07 368.129C274.339 368.007 274.576 367.844 274.781 367.639C274.991 367.429 275.157 367.192 275.279 366.928C275.406 366.665 275.479 366.389 275.499 366.101H276.143C276.143 366.506 276.063 366.906 275.902 367.302C275.745 367.692 275.526 368.049 275.242 368.371C274.959 368.693 274.627 368.952 274.246 369.147C273.865 369.338 273.45 369.433 273.001 369.433C272.474 369.433 272.017 369.331 271.632 369.125C271.246 368.92 270.928 368.647 270.679 368.305C270.435 367.963 270.252 367.583 270.13 367.163C270.013 366.738 269.954 366.308 269.954 365.874C269.954 365.366 270.025 364.89 270.167 364.445C270.308 364.001 270.518 363.61 270.797 363.273C271.075 362.932 271.419 362.666 271.829 362.475C272.244 362.285 272.723 362.189 273.265 362.189C273.875 362.189 274.395 362.312 274.825 362.556C275.255 362.8 275.604 363.127 275.872 363.537C276.146 363.947 276.346 364.409 276.473 364.921C276.6 365.434 276.663 365.961 276.663 366.503V366.994C276.663 367.546 276.627 368.107 276.553 368.679C276.485 369.245 276.351 369.787 276.151 370.305C275.955 370.822 275.67 371.286 275.294 371.696C274.918 372.102 274.427 372.424 273.821 372.663C273.221 372.897 272.479 373.015 271.595 373.015H271.456V371.865ZM280.643 371.865H280.782C281.564 371.865 282.198 371.755 282.687 371.535C283.175 371.315 283.551 371.02 283.815 370.649C284.078 370.278 284.259 369.86 284.357 369.396C284.454 368.928 284.503 368.447 284.503 367.954V366.32C284.503 365.837 284.447 365.407 284.335 365.031C284.227 364.655 284.076 364.34 283.881 364.086C283.69 363.833 283.473 363.64 283.229 363.508C282.985 363.376 282.726 363.31 282.452 363.31C282.14 363.31 281.859 363.374 281.61 363.5C281.366 363.623 281.158 363.796 280.987 364.021C280.821 364.245 280.695 364.509 280.607 364.812C280.519 365.114 280.475 365.444 280.475 365.8C280.475 366.118 280.514 366.425 280.592 366.723C280.67 367.021 280.79 367.29 280.951 367.529C281.112 367.768 281.312 367.958 281.551 368.1C281.796 368.237 282.081 368.305 282.408 368.305C282.711 368.305 282.994 368.247 283.258 368.129C283.527 368.007 283.763 367.844 283.968 367.639C284.178 367.429 284.344 367.192 284.466 366.928C284.593 366.665 284.667 366.389 284.686 366.101H285.331C285.331 366.506 285.25 366.906 285.089 367.302C284.933 367.692 284.713 368.049 284.43 368.371C284.147 368.693 283.815 368.952 283.434 369.147C283.053 369.338 282.638 369.433 282.189 369.433C281.661 369.433 281.205 369.331 280.819 369.125C280.433 368.92 280.116 368.647 279.867 368.305C279.623 367.963 279.44 367.583 279.318 367.163C279.2 366.738 279.142 366.308 279.142 365.874C279.142 365.366 279.213 364.89 279.354 364.445C279.496 364.001 279.706 363.61 279.984 363.273C280.262 362.932 280.607 362.666 281.017 362.475C281.432 362.285 281.91 362.189 282.452 362.189C283.063 362.189 283.583 362.312 284.012 362.556C284.442 362.8 284.791 363.127 285.06 363.537C285.333 363.947 285.533 364.409 285.66 364.921C285.787 365.434 285.851 365.961 285.851 366.503V366.994C285.851 367.546 285.814 368.107 285.741 368.679C285.673 369.245 285.538 369.787 285.338 370.305C285.143 370.822 284.857 371.286 284.481 371.696C284.105 372.102 283.614 372.424 283.009 372.663C282.408 372.897 281.666 373.015 280.782 373.015H280.643V371.865ZM289.831 371.865H289.97C290.751 371.865 291.386 371.755 291.874 371.535C292.362 371.315 292.738 371.02 293.002 370.649C293.266 370.278 293.446 369.86 293.544 369.396C293.642 368.928 293.691 368.447 293.691 367.954V366.32C293.691 365.837 293.634 365.407 293.522 365.031C293.415 364.655 293.263 364.34 293.068 364.086C292.878 363.833 292.66 363.64 292.416 363.508C292.172 363.376 291.913 363.31 291.64 363.31C291.327 363.31 291.047 363.374 290.798 363.5C290.553 363.623 290.346 363.796 290.175 364.021C290.009 364.245 289.882 364.509 289.794 364.812C289.706 365.114 289.662 365.444 289.662 365.8C289.662 366.118 289.701 366.425 289.779 366.723C289.858 367.021 289.977 367.29 290.138 367.529C290.299 367.768 290.5 367.958 290.739 368.1C290.983 368.237 291.269 368.305 291.596 368.305C291.899 368.305 292.182 368.247 292.445 368.129C292.714 368.007 292.951 367.844 293.156 367.639C293.366 367.429 293.532 367.192 293.654 366.928C293.781 366.665 293.854 366.389 293.874 366.101H294.518C294.518 366.506 294.438 366.906 294.277 367.302C294.12 367.692 293.901 368.049 293.617 368.371C293.334 368.693 293.002 368.952 292.621 369.147C292.24 369.338 291.825 369.433 291.376 369.433C290.849 369.433 290.392 369.331 290.007 369.125C289.621 368.92 289.303 368.647 289.054 368.305C288.81 367.963 288.627 367.583 288.505 367.163C288.388 366.738 288.329 366.308 288.329 365.874C288.329 365.366 288.4 364.89 288.542 364.445C288.683 364.001 288.893 363.61 289.172 363.273C289.45 362.932 289.794 362.666 290.204 362.475C290.619 362.285 291.098 362.189 291.64 362.189C292.25 362.189 292.77 362.312 293.2 362.556C293.63 362.8 293.979 363.127 294.247 363.537C294.521 363.947 294.721 364.409 294.848 364.921C294.975 365.434 295.038 365.961 295.038 366.503V366.994C295.038 367.546 295.002 368.107 294.928 368.679C294.86 369.245 294.726 369.787 294.526 370.305C294.33 370.822 294.045 371.286 293.669 371.696C293.293 372.102 292.802 372.424 292.196 372.663C291.596 372.897 290.854 373.015 289.97 373.015H289.831V371.865Z" fill="#C7CBCB"/>
<path opacity="0.7" d="M254.728 227L248.904 207.96H219.784L213.96 227H195.704L223.928 146.696H244.648L272.984 227H254.728ZM239.048 175.144C238.674 173.875 238.189 172.269 237.592 170.328C236.994 168.387 236.397 166.408 235.8 164.392C235.202 162.376 234.717 160.621 234.344 159.128C233.97 160.621 233.448 162.488 232.776 164.728C232.178 166.893 231.581 168.984 230.984 171C230.461 172.941 230.05 174.323 229.752 175.144L224.04 193.736H244.872L239.048 175.144ZM295.096 165.848V227H278.408V165.848H295.096ZM286.808 141.88C289.272 141.88 291.4 142.477 293.192 143.672C294.984 144.792 295.88 146.92 295.88 150.056C295.88 153.117 294.984 155.245 293.192 156.44C291.4 157.635 289.272 158.232 286.808 158.232C284.269 158.232 282.104 157.635 280.312 156.44C278.595 155.245 277.736 153.117 277.736 150.056C277.736 146.92 278.595 144.792 280.312 143.672C282.104 142.477 284.269 141.88 286.808 141.88ZM343.333 164.728C344.154 164.728 345.125 164.765 346.245 164.84C347.365 164.915 348.261 165.027 348.933 165.176L347.701 180.856C347.178 180.707 346.394 180.595 345.349 180.52C344.378 180.371 343.52 180.296 342.773 180.296C340.608 180.296 338.517 180.595 336.501 181.192C334.485 181.715 332.656 182.573 331.013 183.768C329.445 184.963 328.176 186.568 327.205 188.584C326.309 190.525 325.861 192.952 325.861 195.864V227H309.173V165.848H321.829L324.293 176.152H325.077C326.272 174.061 327.765 172.157 329.557 170.44C331.349 168.723 333.402 167.341 335.717 166.296C338.106 165.251 340.645 164.728 343.333 164.728Z" fill="#C7CBCB"/>
<path opacity="0.7" d="M204.764 316L203.808 316.294L204.025 317H204.764V316ZM185.5 253.28L186.456 252.986L186.239 252.28H185.5V253.28ZM185.052 253.28V252.28H184.001L184.053 253.33L185.052 253.28ZM185.388 260L184.389 260.05L185.388 260ZM185.836 269.632L184.837 269.675L184.837 269.676L185.836 269.632ZM186.06 316V317H187.06V316H186.06ZM170.94 316H169.94V317H170.94V316ZM170.94 236.032V235.032H169.94V236.032H170.94ZM194.012 236.032L194.967 235.736L194.749 235.032H194.012V236.032ZM212.94 297.184L211.985 297.48L212.203 298.184H212.94V297.184ZM213.276 297.184V298.184H214.001L214.226 297.496L213.276 297.184ZM233.324 236.032V235.032H232.599L232.374 235.72L233.324 236.032ZM256.396 236.032H257.396V235.032H256.396V236.032ZM256.396 316V317H257.396V316H256.396ZM240.604 316H239.604V317H240.604V316ZM240.716 269.408L239.717 269.363L239.717 269.374L239.716 269.385L240.716 269.408ZM241.052 260.112L240.053 260.062L240.053 260.074L240.052 260.086L241.052 260.112ZM241.388 253.392L242.387 253.442L242.439 252.392H241.388V253.392ZM240.94 253.392V252.392H240.216L239.99 253.079L240.94 253.392ZM220.332 316V317H221.056L221.282 316.313L220.332 316ZM205.72 315.706L186.456 252.986L184.544 253.574L203.808 316.294L205.72 315.706ZM185.5 252.28H185.052V254.28H185.5V252.28ZM184.053 253.33C184.128 254.823 184.24 257.063 184.389 260.05L186.387 259.95C186.237 256.963 186.125 254.723 186.051 253.23L184.053 253.33ZM184.389 260.05C184.538 263.034 184.688 266.243 184.837 269.675L186.835 269.589C186.686 266.152 186.536 262.939 186.387 259.95L184.389 260.05ZM184.837 269.676C184.986 273.025 185.06 276.071 185.06 278.816H187.06C187.06 276.036 186.985 272.959 186.835 269.588L184.837 269.676ZM185.06 278.816V316H187.06V278.816H185.06ZM186.06 315H170.94V317H186.06V315ZM171.94 316V236.032H169.94V316H171.94ZM170.94 237.032H194.012V235.032H170.94V237.032ZM193.057 236.328L211.985 297.48L213.895 296.888L194.967 235.736L193.057 236.328ZM212.94 298.184H213.276V296.184H212.94V298.184ZM214.226 297.496L234.274 236.344L232.374 235.72L212.326 296.872L214.226 297.496ZM233.324 237.032H256.396V235.032H233.324V237.032ZM255.396 236.032V316H257.396V236.032H255.396ZM256.396 315H240.604V317H256.396V315ZM241.604 316V278.144H239.604V316H241.604ZM241.604 278.144C241.604 275.615 241.641 272.711 241.716 269.431L239.716 269.385C239.641 272.676 239.604 275.596 239.604 278.144H241.604ZM241.715 269.453C241.865 266.162 241.977 263.057 242.052 260.138L240.052 260.086C239.978 262.991 239.866 266.083 239.717 269.363L241.715 269.453ZM242.051 260.162C242.2 257.175 242.312 254.935 242.387 253.442L240.389 253.342C240.315 254.835 240.203 257.075 240.053 260.062L242.051 260.162ZM241.388 252.392H240.94V254.392H241.388V252.392ZM239.99 253.079L219.382 315.687L221.282 316.313L241.89 253.705L239.99 253.079ZM220.332 315H204.764V317H220.332V315ZM315.796 258.992L315.159 259.762L315.166 259.768L315.173 259.774L315.796 258.992ZM322.404 316V317H323.404V316H322.404ZM310.756 316L309.825 316.365L310.074 317H310.756V316ZM307.508 307.712L308.439 307.347L308.19 306.712H307.508V307.712ZM307.06 307.712V306.712H306.577L306.277 307.091L307.06 307.712ZM301.684 313.088L301.079 312.292L301.071 312.298L301.064 312.304L301.684 313.088ZM295.412 316.112L295.17 315.142L295.151 315.146L295.133 315.152L295.412 316.112ZM277.044 315.104L276.597 315.998L276.611 316.005L276.625 316.012L277.044 315.104ZM270.324 308.72L269.453 309.211L269.459 309.221L270.324 308.72ZM274.692 283.408L275.25 284.238L275.259 284.232L274.692 283.408ZM295.188 278.256L295.157 277.256L295.155 277.257L295.188 278.256ZM305.828 277.92L305.86 278.92L306.828 278.889V277.92H305.828ZM303.252 268.176L302.58 268.916L302.588 268.923L302.596 268.931L303.252 268.176ZM287.572 267.28L287.85 268.241L287.862 268.237L287.873 268.234L287.572 267.28ZM279.06 270.416L278.161 270.852L278.584 271.725L279.469 271.329L279.06 270.416ZM273.572 259.104L273.109 258.218L272.249 258.667L272.673 259.54L273.572 259.104ZM284.436 255.072L284.202 254.1L284.198 254.101L284.436 255.072ZM299.332 287.888L299.36 288.888L299.367 288.887L299.332 287.888ZM288.132 290.8L287.481 290.041L288.132 290.8ZM287.236 303.344L286.636 304.144L286.649 304.154L286.663 304.163L287.236 303.344ZM302.132 301.776L302.779 302.539L302.786 302.533L302.792 302.527L302.132 301.776ZM305.828 287.664H306.828V286.629L305.794 286.665L305.828 287.664ZM296.98 254.616C305.065 254.616 311.074 256.382 315.159 259.762L316.434 258.222C311.857 254.434 305.322 252.616 296.98 252.616V254.616ZM315.173 259.774C319.273 263.04 321.404 268.121 321.404 275.232H323.404C323.404 267.709 321.131 261.963 316.419 258.21L315.173 259.774ZM321.404 275.232V316H323.404V275.232H321.404ZM322.404 315H310.756V317H322.404V315ZM311.687 315.635L308.439 307.347L306.577 308.077L309.825 316.365L311.687 315.635ZM307.508 306.712H307.06V308.712H307.508V306.712ZM306.277 307.091C304.602 309.202 302.869 310.932 301.079 312.292L302.289 313.884C304.233 312.407 306.083 310.553 307.844 308.333L306.277 307.091ZM301.064 312.304C299.391 313.628 297.432 314.576 295.17 315.142L295.655 317.082C298.171 316.453 300.393 315.386 302.305 313.872L301.064 312.304ZM295.133 315.152C292.939 315.789 290.165 316.12 286.788 316.12V318.12C290.281 318.12 293.256 317.779 295.691 317.072L295.133 315.152ZM286.788 316.12C283.332 316.12 280.229 315.473 277.463 314.196L276.625 316.012C279.683 317.423 283.077 318.12 286.788 318.12V316.12ZM277.491 314.21C274.835 312.881 272.738 310.893 271.19 308.219L269.459 309.221C271.196 312.222 273.579 314.489 276.597 315.998L277.491 314.21ZM271.195 308.229C269.66 305.507 268.86 302.03 268.86 297.744H266.86C266.86 302.269 267.703 306.109 269.453 309.211L271.195 308.229ZM268.86 297.744C268.86 291.511 271.026 287.077 275.25 284.238L274.134 282.578C269.25 285.861 266.86 290.985 266.86 297.744H268.86ZM275.259 284.232C279.585 281.254 286.191 279.552 295.221 279.255L295.155 277.257C285.966 277.558 278.909 279.29 274.125 282.584L275.259 284.232ZM295.22 279.256L305.86 278.92L305.797 276.92L295.157 277.256L295.22 279.256ZM306.828 277.92V275.232H304.828V277.92H306.828ZM306.828 275.232C306.828 271.855 305.922 269.173 303.908 267.421L302.596 268.931C304.017 270.166 304.828 272.188 304.828 275.232H306.828ZM303.925 267.436C302.042 265.725 299.456 264.936 296.308 264.936V266.936C299.133 266.936 301.177 267.641 302.58 268.916L303.925 267.436ZM296.308 264.936C293.22 264.936 290.206 265.4 287.271 266.326L287.873 268.234C290.613 267.368 293.423 266.936 296.308 266.936V264.936ZM287.294 266.319C284.41 267.154 281.529 268.216 278.652 269.503L279.469 271.329C282.266 270.077 285.06 269.048 287.85 268.241L287.294 266.319ZM279.96 269.98L274.472 258.668L272.673 259.54L278.161 270.852L279.96 269.98ZM274.036 259.99C277.243 258.314 280.788 256.997 284.674 256.043L284.198 254.101C280.17 255.089 276.472 256.46 273.109 258.218L274.036 259.99ZM284.67 256.044C288.622 255.093 292.725 254.616 296.98 254.616V252.616C292.574 252.616 288.314 253.11 284.202 254.1L284.67 256.044ZM299.304 286.888C293.886 287.039 289.848 288.012 287.481 290.041L288.783 291.559C290.597 290.004 294.027 289.036 299.36 288.888L299.304 286.888ZM287.481 290.041C285.155 292.035 283.996 294.671 283.996 297.856H285.996C285.996 295.217 286.928 293.149 288.783 291.559L287.481 290.041ZM283.996 297.856C283.996 300.587 284.807 302.772 286.636 304.144L287.836 302.544C286.679 301.676 285.996 300.202 285.996 297.856H283.996ZM286.663 304.163C288.369 305.358 290.529 305.912 293.06 305.912V303.912C290.813 303.912 289.09 303.421 287.81 302.525L286.663 304.163ZM293.06 305.912C296.854 305.912 300.115 304.799 302.779 302.539L301.485 301.013C299.222 302.934 296.435 303.912 293.06 303.912V305.912ZM302.792 302.527C305.512 300.137 306.828 296.816 306.828 292.704H304.828C304.828 296.357 303.68 299.085 301.472 301.025L302.792 302.527ZM306.828 292.704V287.664H304.828V292.704H306.828ZM305.794 286.665L299.298 286.889L299.367 288.887L305.863 288.663L305.794 286.665ZM348.67 284.752L349.503 285.305L349.869 284.754L349.505 284.202L348.67 284.752ZM328.958 254.848V253.848H327.101L328.123 255.398L328.958 254.848ZM347.886 254.848L348.74 254.328L348.448 253.848H347.886V254.848ZM359.758 274.336L358.904 274.856L359.754 276.252L360.61 274.86L359.758 274.336ZM371.742 254.848V253.848H371.183L370.89 254.324L371.742 254.848ZM390.67 254.848L391.502 255.403L392.539 253.848H390.67V254.848ZM370.734 284.752L369.902 284.197L369.532 284.752L369.902 285.307L370.734 284.752ZM391.566 316V317H393.435L392.398 315.445L391.566 316ZM372.638 316L371.786 316.524L372.079 317H372.638V316ZM359.758 295.056L360.61 294.532L359.758 293.147L358.906 294.532L359.758 295.056ZM346.878 316V317H347.437L347.73 316.524L346.878 316ZM327.95 316L327.117 315.447L326.087 317H327.95V316ZM349.505 284.202L329.793 254.298L328.123 255.398L347.835 285.302L349.505 284.202ZM328.958 255.848H347.886V253.848H328.958V255.848ZM347.032 255.368L358.904 274.856L360.612 273.816L348.74 254.328L347.032 255.368ZM360.61 274.86L372.594 255.372L370.89 254.324L358.906 273.812L360.61 274.86ZM371.742 255.848H390.67V253.848H371.742V255.848ZM389.838 254.293L369.902 284.197L371.566 285.307L391.502 255.403L389.838 254.293ZM369.902 285.307L390.734 316.555L392.398 315.445L371.566 284.197L369.902 285.307ZM391.566 315H372.638V317H391.566V315ZM373.49 315.476L360.61 294.532L358.906 295.58L371.786 316.524L373.49 315.476ZM358.906 294.532L346.026 315.476L347.73 316.524L360.61 295.58L358.906 294.532ZM346.878 315H327.95V317H346.878V315ZM328.783 316.553L349.503 285.305L347.837 284.199L327.117 315.447L328.783 316.553Z" fill="#C7CBCB"/>
<g opacity="0.25">
<path opacity="0.7" d="M161.728 86L155.904 66.96H126.784L120.96 86H102.704L130.928 5.696H151.648L179.984 86H161.728ZM146.048 34.144C145.674 32.8747 145.189 31.2693 144.592 29.328C143.994 27.3867 143.397 25.408 142.8 23.392C142.202 21.376 141.717 19.6213 141.344 18.128C140.97 19.6213 140.448 21.488 139.776 23.728C139.178 25.8933 138.581 27.984 137.984 30C137.461 31.9413 137.05 33.3227 136.752 34.144L131.04 52.736H151.872L146.048 34.144ZM202.096 24.848V86H185.408V24.848H202.096ZM193.808 0.879994C196.272 0.879994 198.4 1.47733 200.192 2.672C201.984 3.792 202.88 5.92 202.88 9.056C202.88 12.1173 201.984 14.2453 200.192 15.44C198.4 16.6347 196.272 17.232 193.808 17.232C191.269 17.232 189.104 16.6347 187.312 15.44C185.595 14.2453 184.736 12.1173 184.736 9.056C184.736 5.92 185.595 3.792 187.312 2.672C189.104 1.47733 191.269 0.879994 193.808 0.879994ZM250.333 23.728C251.154 23.728 252.125 23.7653 253.245 23.84C254.365 23.9147 255.261 24.0267 255.933 24.176L254.701 39.856C254.178 39.7067 253.394 39.5947 252.349 39.52C251.378 39.3707 250.52 39.296 249.773 39.296C247.608 39.296 245.517 39.5947 243.501 40.192C241.485 40.7147 239.656 41.5733 238.013 42.768C236.445 43.9627 235.176 45.568 234.205 47.584C233.309 49.5253 232.861 51.952 232.861 54.864V86H216.173V24.848H228.829L231.293 35.152H232.077C233.272 33.0613 234.765 31.1573 236.557 29.44C238.349 27.7227 240.402 26.3413 242.717 25.296C245.106 24.2507 247.645 23.728 250.333 23.728Z" fill="#C7CBCB"/>
<path opacity="0.7" d="M111.764 175L110.808 175.294L111.025 176H111.764V175ZM92.5 112.28L93.4559 111.986L93.239 111.28H92.5V112.28ZM92.052 112.28V111.28H91.0008L91.0532 112.33L92.052 112.28ZM92.388 119L91.3893 119.05L92.388 119ZM92.836 128.632L91.8369 128.675L91.837 128.676L92.836 128.632ZM93.06 175V176H94.06V175H93.06ZM77.94 175H76.94V176H77.94V175ZM77.94 95.032V94.032H76.94V95.032H77.94ZM101.012 95.032L101.967 94.7363L101.749 94.032H101.012V95.032ZM119.94 156.184L118.985 156.48L119.203 157.184H119.94V156.184ZM120.276 156.184V157.184H121.001L121.226 156.496L120.276 156.184ZM140.324 95.032V94.032H139.599L139.374 94.7205L140.324 95.032ZM163.396 95.032H164.396V94.032H163.396V95.032ZM163.396 175V176H164.396V175H163.396ZM147.604 175H146.604V176H147.604V175ZM147.716 128.408L146.717 128.363L146.717 128.374L146.716 128.385L147.716 128.408ZM148.052 119.112L147.053 119.062L147.053 119.074L147.052 119.086L148.052 119.112ZM148.388 112.392L149.387 112.442L149.439 111.392H148.388V112.392ZM147.94 112.392V111.392H147.216L146.99 112.079L147.94 112.392ZM127.332 175V176H128.056L128.282 175.313L127.332 175ZM112.72 174.706L93.4559 111.986L91.5441 112.574L110.808 175.294L112.72 174.706ZM92.5 111.28H92.052V113.28H92.5V111.28ZM91.0532 112.33C91.1279 113.823 91.2399 116.063 91.3893 119.05L93.3868 118.95C93.2374 115.963 93.1254 113.723 93.0508 112.23L91.0532 112.33ZM91.3893 119.05C91.5385 122.034 91.6877 125.243 91.8369 128.675L93.8351 128.589C93.6856 125.152 93.5362 121.939 93.3868 118.95L91.3893 119.05ZM91.837 128.676C91.9858 132.025 92.06 135.071 92.06 137.816H94.06C94.06 135.036 93.9849 131.959 93.835 128.588L91.837 128.676ZM92.06 137.816V175H94.06V137.816H92.06ZM93.06 174H77.94V176H93.06V174ZM78.94 175V95.032H76.94V175H78.94ZM77.94 96.032H101.012V94.032H77.94V96.032ZM100.057 95.3277L118.985 156.48L120.895 155.888L101.967 94.7363L100.057 95.3277ZM119.94 157.184H120.276V155.184H119.94V157.184ZM121.226 156.496L141.274 95.3435L139.374 94.7205L119.326 155.872L121.226 156.496ZM140.324 96.032H163.396V94.032H140.324V96.032ZM162.396 95.032V175H164.396V95.032H162.396ZM163.396 174H147.604V176H163.396V174ZM148.604 175V137.144H146.604V175H148.604ZM148.604 137.144C148.604 134.615 148.641 131.711 148.716 128.431L146.716 128.385C146.641 131.676 146.604 134.596 146.604 137.144H148.604ZM148.715 128.453C148.865 125.162 148.977 122.057 149.052 119.138L147.052 119.086C146.978 121.991 146.866 125.083 146.717 128.363L148.715 128.453ZM149.051 119.162C149.2 116.175 149.312 113.935 149.387 112.442L147.389 112.342C147.315 113.835 147.203 116.075 147.053 119.062L149.051 119.162ZM148.388 111.392H147.94V113.392H148.388V111.392ZM146.99 112.079L126.382 174.687L128.282 175.313L148.89 112.705L146.99 112.079ZM127.332 174H111.764V176H127.332V174ZM222.796 117.992L222.159 118.762L222.166 118.768L222.173 118.774L222.796 117.992ZM229.404 175V176H230.404V175H229.404ZM217.756 175L216.825 175.365L217.074 176H217.756V175ZM214.508 166.712L215.439 166.347L215.19 165.712H214.508V166.712ZM214.06 166.712V165.712H213.577L213.277 166.091L214.06 166.712ZM208.684 172.088L208.079 171.292L208.071 171.298L208.064 171.304L208.684 172.088ZM202.412 175.112L202.17 174.142L202.151 174.146L202.133 174.152L202.412 175.112ZM184.044 174.104L183.597 174.998L183.611 175.005L183.625 175.012L184.044 174.104ZM177.324 167.72L176.453 168.211L176.459 168.221L177.324 167.72ZM181.692 142.408L182.25 143.238L182.259 143.232L181.692 142.408ZM202.188 137.256L202.157 136.256L202.155 136.257L202.188 137.256ZM212.828 136.92L212.86 137.92L213.828 137.889V136.92H212.828ZM210.252 127.176L209.58 127.916L209.588 127.923L209.596 127.931L210.252 127.176ZM194.572 126.28L194.85 127.241L194.862 127.237L194.873 127.234L194.572 126.28ZM186.06 129.416L185.161 129.852L185.584 130.725L186.469 130.329L186.06 129.416ZM180.572 118.104L180.109 117.218L179.249 117.667L179.673 118.54L180.572 118.104ZM191.436 114.072L191.202 113.1L191.198 113.101L191.436 114.072ZM206.332 146.888L206.36 147.888L206.367 147.887L206.332 146.888ZM195.132 149.8L194.481 149.041L195.132 149.8ZM194.236 162.344L193.636 163.144L193.649 163.154L193.663 163.163L194.236 162.344ZM209.132 160.776L209.779 161.539L209.786 161.533L209.792 161.527L209.132 160.776ZM212.828 146.664H213.828V145.629L212.794 145.665L212.828 146.664ZM203.98 113.616C212.065 113.616 218.074 115.382 222.159 118.762L223.434 117.222C218.857 113.434 212.322 111.616 203.98 111.616V113.616ZM222.173 118.774C226.273 122.04 228.404 127.121 228.404 134.232H230.404C230.404 126.709 228.131 120.963 223.419 117.21L222.173 118.774ZM228.404 134.232V175H230.404V134.232H228.404ZM229.404 174H217.756V176H229.404V174ZM218.687 174.635L215.439 166.347L213.577 167.077L216.825 175.365L218.687 174.635ZM214.508 165.712H214.06V167.712H214.508V165.712ZM213.277 166.091C211.602 168.202 209.869 169.932 208.079 171.292L209.289 172.884C211.233 171.407 213.083 169.553 214.844 167.333L213.277 166.091ZM208.064 171.304C206.391 172.628 204.432 173.576 202.17 174.142L202.655 176.082C205.171 175.453 207.393 174.386 209.305 172.872L208.064 171.304ZM202.133 174.152C199.939 174.789 197.165 175.12 193.788 175.12V177.12C197.281 177.12 200.256 176.779 202.691 176.072L202.133 174.152ZM193.788 175.12C190.332 175.12 187.229 174.473 184.463 173.196L183.625 175.012C186.683 176.423 190.077 177.12 193.788 177.12V175.12ZM184.491 173.21C181.835 171.881 179.738 169.893 178.19 167.219L176.459 168.221C178.196 171.222 180.579 173.489 183.597 174.998L184.491 173.21ZM178.195 167.229C176.66 164.507 175.86 161.03 175.86 156.744H173.86C173.86 161.269 174.703 165.109 176.453 168.211L178.195 167.229ZM175.86 156.744C175.86 150.511 178.026 146.077 182.25 143.238L181.134 141.578C176.25 144.861 173.86 149.985 173.86 156.744H175.86ZM182.259 143.232C186.585 140.254 193.191 138.552 202.221 138.255L202.155 136.257C192.966 136.558 185.909 138.29 181.125 141.584L182.259 143.232ZM202.22 138.256L212.86 137.92L212.797 135.92L202.157 136.256L202.22 138.256ZM213.828 136.92V134.232H211.828V136.92H213.828ZM213.828 134.232C213.828 130.855 212.922 128.173 210.908 126.421L209.596 127.931C211.017 129.166 211.828 131.188 211.828 134.232H213.828ZM210.925 126.436C209.042 124.725 206.456 123.936 203.308 123.936V125.936C206.133 125.936 208.177 126.641 209.58 127.916L210.925 126.436ZM203.308 123.936C200.22 123.936 197.206 124.4 194.271 125.326L194.873 127.234C197.613 126.368 200.423 125.936 203.308 125.936V123.936ZM194.294 125.319C191.41 126.154 188.529 127.216 185.652 128.503L186.469 130.329C189.266 129.077 192.06 128.048 194.85 127.241L194.294 125.319ZM186.96 128.98L181.472 117.668L179.673 118.54L185.161 129.852L186.96 128.98ZM181.036 118.99C184.243 117.314 187.788 115.997 191.674 115.043L191.198 113.101C187.17 114.089 183.472 115.46 180.109 117.218L181.036 118.99ZM191.67 115.044C195.622 114.093 199.725 113.616 203.98 113.616V111.616C199.574 111.616 195.314 112.11 191.202 113.1L191.67 115.044ZM206.304 145.888C200.886 146.039 196.848 147.012 194.481 149.041L195.783 150.559C197.597 149.004 201.027 148.036 206.36 147.888L206.304 145.888ZM194.481 149.041C192.155 151.035 190.996 153.671 190.996 156.856H192.996C192.996 154.217 193.928 152.149 195.783 150.559L194.481 149.041ZM190.996 156.856C190.996 159.587 191.807 161.772 193.636 163.144L194.836 161.544C193.679 160.676 192.996 159.202 192.996 156.856H190.996ZM193.663 163.163C195.369 164.358 197.529 164.912 200.06 164.912V162.912C197.813 162.912 196.09 162.421 194.81 161.525L193.663 163.163ZM200.06 164.912C203.854 164.912 207.115 163.799 209.779 161.539L208.485 160.013C206.222 161.934 203.435 162.912 200.06 162.912V164.912ZM209.792 161.527C212.512 159.137 213.828 155.816 213.828 151.704H211.828C211.828 155.357 210.68 158.085 208.472 160.025L209.792 161.527ZM213.828 151.704V146.664H211.828V151.704H213.828ZM212.794 145.665L206.298 145.889L206.367 147.887L212.863 147.663L212.794 145.665ZM255.67 143.752L256.503 144.305L256.869 143.754L256.505 143.202L255.67 143.752ZM235.958 113.848V112.848H234.101L235.123 114.398L235.958 113.848ZM254.886 113.848L255.74 113.328L255.448 112.848H254.886V113.848ZM266.758 133.336L265.904 133.856L266.754 135.252L267.61 133.86L266.758 133.336ZM278.742 113.848V112.848H278.183L277.89 113.324L278.742 113.848ZM297.67 113.848L298.502 114.403L299.539 112.848H297.67V113.848ZM277.734 143.752L276.902 143.197L276.532 143.752L276.902 144.307L277.734 143.752ZM298.566 175V176H300.435L299.398 174.445L298.566 175ZM279.638 175L278.786 175.524L279.079 176H279.638V175ZM266.758 154.056L267.61 153.532L266.758 152.147L265.906 153.532L266.758 154.056ZM253.878 175V176H254.437L254.73 175.524L253.878 175ZM234.95 175L234.117 174.447L233.087 176H234.95V175ZM256.505 143.202L236.793 113.298L235.123 114.398L254.835 144.302L256.505 143.202ZM235.958 114.848H254.886V112.848H235.958V114.848ZM254.032 114.368L265.904 133.856L267.612 132.816L255.74 113.328L254.032 114.368ZM267.61 133.86L279.594 114.372L277.89 113.324L265.906 132.812L267.61 133.86ZM278.742 114.848H297.67V112.848H278.742V114.848ZM296.838 113.293L276.902 143.197L278.566 144.307L298.502 114.403L296.838 113.293ZM276.902 144.307L297.734 175.555L299.398 174.445L278.566 143.197L276.902 144.307ZM298.566 174H279.638V176H298.566V174ZM280.49 174.476L267.61 153.532L265.906 154.58L278.786 175.524L280.49 174.476ZM265.906 153.532L253.026 174.476L254.73 175.524L267.61 154.58L265.906 153.532ZM253.878 174H234.95V176H253.878V174ZM235.783 175.553L256.503 144.305L254.837 143.199L234.117 174.447L235.783 175.553Z" fill="#C7CBCB"/>
</g>
<g opacity="0.25">
<path opacity="0.7" d="M391.728 386L385.904 405.04H356.784L350.96 386H332.704L360.928 466.304H381.648L409.984 386H391.728ZM376.048 437.856C375.674 439.125 375.189 440.731 374.592 442.672C373.994 444.613 373.397 446.592 372.8 448.608C372.202 450.624 371.717 452.379 371.344 453.872C370.97 452.379 370.448 450.512 369.776 448.272C369.178 446.107 368.581 444.016 367.984 442C367.461 440.059 367.05 438.677 366.752 437.856L361.04 419.264H381.872L376.048 437.856ZM432.096 447.152V386H415.408V447.152H432.096ZM423.808 471.12C426.272 471.12 428.4 470.523 430.192 469.328C431.984 468.208 432.88 466.08 432.88 462.944C432.88 459.883 431.984 457.755 430.192 456.56C428.4 455.365 426.272 454.768 423.808 454.768C421.269 454.768 419.104 455.365 417.312 456.56C415.595 457.755 414.736 459.883 414.736 462.944C414.736 466.08 415.595 468.208 417.312 469.328C419.104 470.523 421.269 471.12 423.808 471.12ZM480.333 448.272C481.154 448.272 482.125 448.235 483.245 448.16C484.365 448.085 485.261 447.973 485.933 447.824L484.701 432.144C484.178 432.293 483.394 432.405 482.349 432.48C481.378 432.629 480.52 432.704 479.773 432.704C477.608 432.704 475.517 432.405 473.501 431.808C471.485 431.285 469.656 430.427 468.013 429.232C466.445 428.037 465.176 426.432 464.205 424.416C463.309 422.475 462.861 420.048 462.861 417.136V386H446.173V447.152H458.829L461.293 436.848H462.077C463.272 438.939 464.765 440.843 466.557 442.56C468.349 444.277 470.402 445.659 472.717 446.704C475.106 447.749 477.645 448.272 480.333 448.272Z" fill="#C7CBCB"/>
<path opacity="0.7" d="M341.764 297L340.808 296.706L341.025 296H341.764V297ZM322.5 359.72L323.456 360.014L323.239 360.72H322.5V359.72ZM322.052 359.72V360.72H321.001L321.053 359.67L322.052 359.72ZM322.388 353L321.389 352.95L322.388 353ZM322.836 343.368L321.837 343.325L321.837 343.324L322.836 343.368ZM323.06 297V296H324.06V297H323.06ZM307.94 297H306.94V296H307.94V297ZM307.94 376.968V377.968H306.94V376.968H307.94ZM331.012 376.968L331.967 377.264L331.749 377.968H331.012V376.968ZM349.94 315.816L348.985 315.52L349.203 314.816H349.94V315.816ZM350.276 315.816V314.816H351.001L351.226 315.504L350.276 315.816ZM370.324 376.968V377.968H369.599L369.374 377.28L370.324 376.968ZM393.396 376.968H394.396V377.968H393.396V376.968ZM393.396 297V296H394.396V297H393.396ZM377.604 297H376.604V296H377.604V297ZM377.716 343.592L376.717 343.637L376.717 343.626L376.716 343.615L377.716 343.592ZM378.052 352.888L377.053 352.938L377.053 352.926L377.052 352.914L378.052 352.888ZM378.388 359.608L379.387 359.558L379.439 360.608H378.388V359.608ZM377.94 359.608V360.608H377.216L376.99 359.921L377.94 359.608ZM357.332 297V296H358.056L358.282 296.687L357.332 297ZM342.72 297.294L323.456 360.014L321.544 359.426L340.808 296.706L342.72 297.294ZM322.5 360.72H322.052V358.72H322.5V360.72ZM321.053 359.67C321.128 358.177 321.24 355.937 321.389 352.95L323.387 353.05C323.237 356.037 323.125 358.277 323.051 359.77L321.053 359.67ZM321.389 352.95C321.538 349.966 321.688 346.757 321.837 343.325L323.835 343.411C323.686 346.848 323.536 350.061 323.387 353.05L321.389 352.95ZM321.837 343.324C321.986 339.975 322.06 336.929 322.06 334.184H324.06C324.06 336.964 323.985 340.041 323.835 343.412L321.837 343.324ZM322.06 334.184V297H324.06V334.184H322.06ZM323.06 298H307.94V296H323.06V298ZM308.94 297V376.968H306.94V297H308.94ZM307.94 375.968H331.012V377.968H307.94V375.968ZM330.057 376.672L348.985 315.52L350.895 316.112L331.967 377.264L330.057 376.672ZM349.94 314.816H350.276V316.816H349.94V314.816ZM351.226 315.504L371.274 376.656L369.374 377.28L349.326 316.128L351.226 315.504ZM370.324 375.968H393.396V377.968H370.324V375.968ZM392.396 376.968V297H394.396V376.968H392.396ZM393.396 298H377.604V296H393.396V298ZM378.604 297V334.856H376.604V297H378.604ZM378.604 334.856C378.604 337.385 378.641 340.289 378.716 343.569L376.716 343.615C376.641 340.324 376.604 337.404 376.604 334.856H378.604ZM378.715 343.547C378.865 346.838 378.977 349.943 379.052 352.862L377.052 352.914C376.978 350.009 376.866 346.917 376.717 343.637L378.715 343.547ZM379.051 352.838C379.2 355.825 379.312 358.065 379.387 359.558L377.389 359.658C377.315 358.165 377.203 355.925 377.053 352.938L379.051 352.838ZM378.388 360.608H377.94V358.608H378.388V360.608ZM376.99 359.921L356.382 297.313L358.282 296.687L378.89 359.295L376.99 359.921ZM357.332 298H341.764V296H357.332V298ZM452.796 354.008L452.159 353.238L452.166 353.232L452.173 353.226L452.796 354.008ZM459.404 297V296H460.404V297H459.404ZM447.756 297L446.825 296.635L447.074 296H447.756V297ZM444.508 305.288L445.439 305.653L445.19 306.288H444.508V305.288ZM444.06 305.288V306.288H443.577L443.277 305.909L444.06 305.288ZM438.684 299.912L438.079 300.708L438.071 300.702L438.064 300.696L438.684 299.912ZM432.412 296.888L432.17 297.858L432.151 297.854L432.133 297.848L432.412 296.888ZM414.044 297.896L413.597 297.002L413.611 296.995L413.625 296.988L414.044 297.896ZM407.324 304.28L406.453 303.789L406.459 303.779L407.324 304.28ZM411.692 329.592L412.25 328.762L412.259 328.768L411.692 329.592ZM432.188 334.744L432.157 335.744L432.155 335.743L432.188 334.744ZM442.828 335.08L442.86 334.08L443.828 334.111V335.08H442.828ZM440.252 344.824L439.58 344.084L439.588 344.077L439.596 344.069L440.252 344.824ZM424.572 345.72L424.85 344.759L424.862 344.763L424.873 344.766L424.572 345.72ZM416.06 342.584L415.161 342.148L415.584 341.275L416.469 341.671L416.06 342.584ZM410.572 353.896L410.109 354.782L409.249 354.333L409.673 353.46L410.572 353.896ZM421.436 357.928L421.202 358.9L421.198 358.899L421.436 357.928ZM436.332 325.112L436.36 324.112L436.367 324.113L436.332 325.112ZM425.132 322.2L424.481 322.959L425.132 322.2ZM424.236 309.656L423.636 308.856L423.649 308.846L423.663 308.837L424.236 309.656ZM439.132 311.224L439.779 310.461L439.786 310.467L439.792 310.473L439.132 311.224ZM442.828 325.336H443.828V326.371L442.794 326.335L442.828 325.336ZM433.98 358.384C442.065 358.384 448.074 356.618 452.159 353.238L453.434 354.778C448.857 358.566 442.322 360.384 433.98 360.384V358.384ZM452.173 353.226C456.273 349.96 458.404 344.879 458.404 337.768H460.404C460.404 345.291 458.131 351.037 453.419 354.79L452.173 353.226ZM458.404 337.768V297H460.404V337.768H458.404ZM459.404 298H447.756V296H459.404V298ZM448.687 297.365L445.439 305.653L443.577 304.923L446.825 296.635L448.687 297.365ZM444.508 306.288H444.06V304.288H444.508V306.288ZM443.277 305.909C441.602 303.798 439.869 302.068 438.079 300.708L439.289 299.116C441.233 300.593 443.083 302.447 444.844 304.667L443.277 305.909ZM438.064 300.696C436.391 299.372 434.432 298.424 432.17 297.858L432.655 295.918C435.171 296.547 437.393 297.614 439.305 299.128L438.064 300.696ZM432.133 297.848C429.939 297.211 427.165 296.88 423.788 296.88V294.88C427.281 294.88 430.256 295.221 432.691 295.928L432.133 297.848ZM423.788 296.88C420.332 296.88 417.229 297.527 414.463 298.804L413.625 296.988C416.683 295.577 420.077 294.88 423.788 294.88V296.88ZM414.491 298.79C411.835 300.119 409.738 302.107 408.19 304.781L406.459 303.779C408.196 300.778 410.579 298.511 413.597 297.002L414.491 298.79ZM408.195 304.771C406.66 307.493 405.86 310.97 405.86 315.256H403.86C403.86 310.731 404.703 306.891 406.453 303.789L408.195 304.771ZM405.86 315.256C405.86 321.489 408.026 325.923 412.25 328.762L411.134 330.422C406.25 327.139 403.86 322.015 403.86 315.256H405.86ZM412.259 328.768C416.585 331.746 423.191 333.448 432.221 333.745L432.155 335.743C422.966 335.442 415.909 333.71 411.125 330.416L412.259 328.768ZM432.22 333.744L442.86 334.08L442.797 336.08L432.157 335.744L432.22 333.744ZM443.828 335.08V337.768H441.828V335.08H443.828ZM443.828 337.768C443.828 341.145 442.922 343.827 440.908 345.579L439.596 344.069C441.017 342.834 441.828 340.812 441.828 337.768H443.828ZM440.925 345.564C439.042 347.275 436.456 348.064 433.308 348.064V346.064C436.133 346.064 438.177 345.359 439.58 344.084L440.925 345.564ZM433.308 348.064C430.22 348.064 427.206 347.6 424.271 346.674L424.873 344.766C427.613 345.632 430.423 346.064 433.308 346.064V348.064ZM424.294 346.681C421.41 345.846 418.529 344.784 415.652 343.497L416.469 341.671C419.266 342.923 422.06 343.952 424.85 344.759L424.294 346.681ZM416.96 343.02L411.472 354.332L409.673 353.46L415.161 342.148L416.96 343.02ZM411.036 353.01C414.243 354.686 417.788 356.003 421.674 356.957L421.198 358.899C417.17 357.911 413.472 356.54 410.109 354.782L411.036 353.01ZM421.67 356.956C425.622 357.907 429.725 358.384 433.98 358.384V360.384C429.574 360.384 425.314 359.89 421.202 358.9L421.67 356.956ZM436.304 326.112C430.886 325.961 426.848 324.988 424.481 322.959L425.783 321.441C427.597 322.996 431.027 323.964 436.36 324.112L436.304 326.112ZM424.481 322.959C422.155 320.965 420.996 318.329 420.996 315.144H422.996C422.996 317.783 423.928 319.851 425.783 321.441L424.481 322.959ZM420.996 315.144C420.996 312.413 421.807 310.228 423.636 308.856L424.836 310.456C423.679 311.324 422.996 312.798 422.996 315.144H420.996ZM423.663 308.837C425.369 307.642 427.529 307.088 430.06 307.088V309.088C427.813 309.088 426.09 309.579 424.81 310.475L423.663 308.837ZM430.06 307.088C433.854 307.088 437.115 308.201 439.779 310.461L438.485 311.987C436.222 310.066 433.435 309.088 430.06 309.088V307.088ZM439.792 310.473C442.512 312.863 443.828 316.184 443.828 320.296H441.828C441.828 316.643 440.68 313.915 438.472 311.975L439.792 310.473ZM443.828 320.296V325.336H441.828V320.296H443.828ZM442.794 326.335L436.298 326.111L436.367 324.113L442.863 324.337L442.794 326.335ZM485.67 328.248L486.503 327.695L486.869 328.246L486.505 328.798L485.67 328.248ZM465.958 358.152V359.152H464.101L465.123 357.602L465.958 358.152ZM484.886 358.152L485.74 358.672L485.448 359.152H484.886V358.152ZM496.758 338.664L495.904 338.144L496.754 336.748L497.61 338.14L496.758 338.664ZM508.742 358.152V359.152H508.183L507.89 358.676L508.742 358.152ZM527.67 358.152L528.502 357.597L529.539 359.152H527.67V358.152ZM507.734 328.248L506.902 328.803L506.532 328.248L506.902 327.693L507.734 328.248ZM528.566 297V296H530.435L529.398 297.555L528.566 297ZM509.638 297L508.786 296.476L509.079 296H509.638V297ZM496.758 317.944L497.61 318.468L496.758 319.853L495.906 318.468L496.758 317.944ZM483.878 297V296H484.437L484.73 296.476L483.878 297ZM464.95 297L464.117 297.553L463.087 296H464.95V297ZM486.505 328.798L466.793 358.702L465.123 357.602L484.835 327.698L486.505 328.798ZM465.958 357.152H484.886V359.152H465.958V357.152ZM484.032 357.632L495.904 338.144L497.612 339.184L485.74 358.672L484.032 357.632ZM497.61 338.14L509.594 357.628L507.89 358.676L495.906 339.188L497.61 338.14ZM508.742 357.152H527.67V359.152H508.742V357.152ZM526.838 358.707L506.902 328.803L508.566 327.693L528.502 357.597L526.838 358.707ZM506.902 327.693L527.734 296.445L529.398 297.555L508.566 328.803L506.902 327.693ZM528.566 298H509.638V296H528.566V298ZM510.49 297.524L497.61 318.468L495.906 317.42L508.786 296.476L510.49 297.524ZM495.906 318.468L483.026 297.524L484.73 296.476L497.61 317.42L495.906 318.468ZM483.878 298H464.95V296H483.878V298ZM465.783 296.447L486.503 327.695L484.837 328.801L464.117 297.553L465.783 296.447Z" fill="#C7CBCB"/>
</g>
<path opacity="0.7" d="M254.728 227L248.904 207.96H219.784L213.96 227H195.704L223.928 146.696H244.648L272.984 227H254.728ZM239.048 175.144C238.674 173.875 238.189 172.269 237.592 170.328C236.994 168.387 236.397 166.408 235.8 164.392C235.202 162.376 234.717 160.621 234.344 159.128C233.97 160.621 233.448 162.488 232.776 164.728C232.178 166.893 231.581 168.984 230.984 171C230.461 172.941 230.05 174.323 229.752 175.144L224.04 193.736H244.872L239.048 175.144ZM295.096 165.848V227H278.408V165.848H295.096ZM286.808 141.88C289.272 141.88 291.4 142.477 293.192 143.672C294.984 144.792 295.88 146.92 295.88 150.056C295.88 153.117 294.984 155.245 293.192 156.44C291.4 157.635 289.272 158.232 286.808 158.232C284.269 158.232 282.104 157.635 280.312 156.44C278.595 155.245 277.736 153.117 277.736 150.056C277.736 146.92 278.595 144.792 280.312 143.672C282.104 142.477 284.269 141.88 286.808 141.88ZM343.333 164.728C344.154 164.728 345.125 164.765 346.245 164.84C347.365 164.915 348.261 165.027 348.933 165.176L347.701 180.856C347.178 180.707 346.394 180.595 345.349 180.52C344.378 180.371 343.52 180.296 342.773 180.296C340.608 180.296 338.517 180.595 336.501 181.192C334.485 181.715 332.656 182.573 331.013 183.768C329.445 184.963 328.176 186.568 327.205 188.584C326.309 190.525 325.861 192.952 325.861 195.864V227H309.173V165.848H321.829L324.293 176.152H325.077C326.272 174.061 327.765 172.157 329.557 170.44C331.349 168.723 333.402 167.341 335.717 166.296C338.106 165.251 340.645 164.728 343.333 164.728Z" fill="#C7CBCB"/>
<path opacity="0.7" d="M204.764 316L203.808 316.294L204.025 317H204.764V316ZM185.5 253.28L186.456 252.986L186.239 252.28H185.5V253.28ZM185.052 253.28V252.28H184.001L184.053 253.33L185.052 253.28ZM185.388 260L184.389 260.05L185.388 260ZM185.836 269.632L184.837 269.675L184.837 269.676L185.836 269.632ZM186.06 316V317H187.06V316H186.06ZM170.94 316H169.94V317H170.94V316ZM170.94 236.032V235.032H169.94V236.032H170.94ZM194.012 236.032L194.967 235.736L194.749 235.032H194.012V236.032ZM212.94 297.184L211.985 297.48L212.203 298.184H212.94V297.184ZM213.276 297.184V298.184H214.001L214.226 297.496L213.276 297.184ZM233.324 236.032V235.032H232.599L232.374 235.72L233.324 236.032ZM256.396 236.032H257.396V235.032H256.396V236.032ZM256.396 316V317H257.396V316H256.396ZM240.604 316H239.604V317H240.604V316ZM240.716 269.408L239.717 269.363L239.717 269.374L239.716 269.385L240.716 269.408ZM241.052 260.112L240.053 260.062L240.053 260.074L240.052 260.086L241.052 260.112ZM241.388 253.392L242.387 253.442L242.439 252.392H241.388V253.392ZM240.94 253.392V252.392H240.216L239.99 253.079L240.94 253.392ZM220.332 316V317H221.056L221.282 316.313L220.332 316ZM205.72 315.706L186.456 252.986L184.544 253.574L203.808 316.294L205.72 315.706ZM185.5 252.28H185.052V254.28H185.5V252.28ZM184.053 253.33C184.128 254.823 184.24 257.063 184.389 260.05L186.387 259.95C186.237 256.963 186.125 254.723 186.051 253.23L184.053 253.33ZM184.389 260.05C184.538 263.034 184.688 266.243 184.837 269.675L186.835 269.589C186.686 266.152 186.536 262.939 186.387 259.95L184.389 260.05ZM184.837 269.676C184.986 273.025 185.06 276.071 185.06 278.816H187.06C187.06 276.036 186.985 272.959 186.835 269.588L184.837 269.676ZM185.06 278.816V316H187.06V278.816H185.06ZM186.06 315H170.94V317H186.06V315ZM171.94 316V236.032H169.94V316H171.94ZM170.94 237.032H194.012V235.032H170.94V237.032ZM193.057 236.328L211.985 297.48L213.895 296.888L194.967 235.736L193.057 236.328ZM212.94 298.184H213.276V296.184H212.94V298.184ZM214.226 297.496L234.274 236.344L232.374 235.72L212.326 296.872L214.226 297.496ZM233.324 237.032H256.396V235.032H233.324V237.032ZM255.396 236.032V316H257.396V236.032H255.396ZM256.396 315H240.604V317H256.396V315ZM241.604 316V278.144H239.604V316H241.604ZM241.604 278.144C241.604 275.615 241.641 272.711 241.716 269.431L239.716 269.385C239.641 272.676 239.604 275.596 239.604 278.144H241.604ZM241.715 269.453C241.865 266.162 241.977 263.057 242.052 260.138L240.052 260.086C239.978 262.991 239.866 266.083 239.717 269.363L241.715 269.453ZM242.051 260.162C242.2 257.175 242.312 254.935 242.387 253.442L240.389 253.342C240.315 254.835 240.203 257.075 240.053 260.062L242.051 260.162ZM241.388 252.392H240.94V254.392H241.388V252.392ZM239.99 253.079L219.382 315.687L221.282 316.313L241.89 253.705L239.99 253.079ZM220.332 315H204.764V317H220.332V315ZM315.796 258.992L315.159 259.762L315.166 259.768L315.173 259.774L315.796 258.992ZM322.404 316V317H323.404V316H322.404ZM310.756 316L309.825 316.365L310.074 317H310.756V316ZM307.508 307.712L308.439 307.347L308.19 306.712H307.508V307.712ZM307.06 307.712V306.712H306.577L306.277 307.091L307.06 307.712ZM301.684 313.088L301.079 312.292L301.071 312.298L301.064 312.304L301.684 313.088ZM295.412 316.112L295.17 315.142L295.151 315.146L295.133 315.152L295.412 316.112ZM277.044 315.104L276.597 315.998L276.611 316.005L276.625 316.012L277.044 315.104ZM270.324 308.72L269.453 309.211L269.459 309.221L270.324 308.72ZM274.692 283.408L275.25 284.238L275.259 284.232L274.692 283.408ZM295.188 278.256L295.157 277.256L295.155 277.257L295.188 278.256ZM305.828 277.92L305.86 278.92L306.828 278.889V277.92H305.828ZM303.252 268.176L302.58 268.916L302.588 268.923L302.596 268.931L303.252 268.176ZM287.572 267.28L287.85 268.241L287.862 268.237L287.873 268.234L287.572 267.28ZM279.06 270.416L278.161 270.852L278.584 271.725L279.469 271.329L279.06 270.416ZM273.572 259.104L273.109 258.218L272.249 258.667L272.673 259.54L273.572 259.104ZM284.436 255.072L284.202 254.1L284.198 254.101L284.436 255.072ZM299.332 287.888L299.36 288.888L299.367 288.887L299.332 287.888ZM288.132 290.8L287.481 290.041L288.132 290.8ZM287.236 303.344L286.636 304.144L286.649 304.154L286.663 304.163L287.236 303.344ZM302.132 301.776L302.779 302.539L302.786 302.533L302.792 302.527L302.132 301.776ZM305.828 287.664H306.828V286.629L305.794 286.665L305.828 287.664ZM296.98 254.616C305.065 254.616 311.074 256.382 315.159 259.762L316.434 258.222C311.857 254.434 305.322 252.616 296.98 252.616V254.616ZM315.173 259.774C319.273 263.04 321.404 268.121 321.404 275.232H323.404C323.404 267.709 321.131 261.963 316.419 258.21L315.173 259.774ZM321.404 275.232V316H323.404V275.232H321.404ZM322.404 315H310.756V317H322.404V315ZM311.687 315.635L308.439 307.347L306.577 308.077L309.825 316.365L311.687 315.635ZM307.508 306.712H307.06V308.712H307.508V306.712ZM306.277 307.091C304.602 309.202 302.869 310.932 301.079 312.292L302.289 313.884C304.233 312.407 306.083 310.553 307.844 308.333L306.277 307.091ZM301.064 312.304C299.391 313.628 297.432 314.576 295.17 315.142L295.655 317.082C298.171 316.453 300.393 315.386 302.305 313.872L301.064 312.304ZM295.133 315.152C292.939 315.789 290.165 316.12 286.788 316.12V318.12C290.281 318.12 293.256 317.779 295.691 317.072L295.133 315.152ZM286.788 316.12C283.332 316.12 280.229 315.473 277.463 314.196L276.625 316.012C279.683 317.423 283.077 318.12 286.788 318.12V316.12ZM277.491 314.21C274.835 312.881 272.738 310.893 271.19 308.219L269.459 309.221C271.196 312.222 273.579 314.489 276.597 315.998L277.491 314.21ZM271.195 308.229C269.66 305.507 268.86 302.03 268.86 297.744H266.86C266.86 302.269 267.703 306.109 269.453 309.211L271.195 308.229ZM268.86 297.744C268.86 291.511 271.026 287.077 275.25 284.238L274.134 282.578C269.25 285.861 266.86 290.985 266.86 297.744H268.86ZM275.259 284.232C279.585 281.254 286.191 279.552 295.221 279.255L295.155 277.257C285.966 277.558 278.909 279.29 274.125 282.584L275.259 284.232ZM295.22 279.256L305.86 278.92L305.797 276.92L295.157 277.256L295.22 279.256ZM306.828 277.92V275.232H304.828V277.92H306.828ZM306.828 275.232C306.828 271.855 305.922 269.173 303.908 267.421L302.596 268.931C304.017 270.166 304.828 272.188 304.828 275.232H306.828ZM303.925 267.436C302.042 265.725 299.456 264.936 296.308 264.936V266.936C299.133 266.936 301.177 267.641 302.58 268.916L303.925 267.436ZM296.308 264.936C293.22 264.936 290.206 265.4 287.271 266.326L287.873 268.234C290.613 267.368 293.423 266.936 296.308 266.936V264.936ZM287.294 266.319C284.41 267.154 281.529 268.216 278.652 269.503L279.469 271.329C282.266 270.077 285.06 269.048 287.85 268.241L287.294 266.319ZM279.96 269.98L274.472 258.668L272.673 259.54L278.161 270.852L279.96 269.98ZM274.036 259.99C277.243 258.314 280.788 256.997 284.674 256.043L284.198 254.101C280.17 255.089 276.472 256.46 273.109 258.218L274.036 259.99ZM284.67 256.044C288.622 255.093 292.725 254.616 296.98 254.616V252.616C292.574 252.616 288.314 253.11 284.202 254.1L284.67 256.044ZM299.304 286.888C293.886 287.039 289.848 288.012 287.481 290.041L288.783 291.559C290.597 290.004 294.027 289.036 299.36 288.888L299.304 286.888ZM287.481 290.041C285.155 292.035 283.996 294.671 283.996 297.856H285.996C285.996 295.217 286.928 293.149 288.783 291.559L287.481 290.041ZM283.996 297.856C283.996 300.587 284.807 302.772 286.636 304.144L287.836 302.544C286.679 301.676 285.996 300.202 285.996 297.856H283.996ZM286.663 304.163C288.369 305.358 290.529 305.912 293.06 305.912V303.912C290.813 303.912 289.09 303.421 287.81 302.525L286.663 304.163ZM293.06 305.912C296.854 305.912 300.115 304.799 302.779 302.539L301.485 301.013C299.222 302.934 296.435 303.912 293.06 303.912V305.912ZM302.792 302.527C305.512 300.137 306.828 296.816 306.828 292.704H304.828C304.828 296.357 303.68 299.085 301.472 301.025L302.792 302.527ZM306.828 292.704V287.664H304.828V292.704H306.828ZM305.794 286.665L299.298 286.889L299.367 288.887L305.863 288.663L305.794 286.665ZM348.67 284.752L349.503 285.305L349.869 284.754L349.505 284.202L348.67 284.752ZM328.958 254.848V253.848H327.101L328.123 255.398L328.958 254.848ZM347.886 254.848L348.74 254.328L348.448 253.848H347.886V254.848ZM359.758 274.336L358.904 274.856L359.754 276.252L360.61 274.86L359.758 274.336ZM371.742 254.848V253.848H371.183L370.89 254.324L371.742 254.848ZM390.67 254.848L391.502 255.403L392.539 253.848H390.67V254.848ZM370.734 284.752L369.902 284.197L369.532 284.752L369.902 285.307L370.734 284.752ZM391.566 316V317H393.435L392.398 315.445L391.566 316ZM372.638 316L371.786 316.524L372.079 317H372.638V316ZM359.758 295.056L360.61 294.532L359.758 293.147L358.906 294.532L359.758 295.056ZM346.878 316V317H347.437L347.73 316.524L346.878 316ZM327.95 316L327.117 315.447L326.087 317H327.95V316ZM349.505 284.202L329.793 254.298L328.123 255.398L347.835 285.302L349.505 284.202ZM328.958 255.848H347.886V253.848H328.958V255.848ZM347.032 255.368L358.904 274.856L360.612 273.816L348.74 254.328L347.032 255.368ZM360.61 274.86L372.594 255.372L370.89 254.324L358.906 273.812L360.61 274.86ZM371.742 255.848H390.67V253.848H371.742V255.848ZM389.838 254.293L369.902 284.197L371.566 285.307L391.502 255.403L389.838 254.293ZM369.902 285.307L390.734 316.555L392.398 315.445L371.566 284.197L369.902 285.307ZM391.566 315H372.638V317H391.566V315ZM373.49 315.476L360.61 294.532L358.906 295.58L371.786 316.524L373.49 315.476ZM358.906 294.532L346.026 315.476L347.73 316.524L360.61 295.58L358.906 294.532ZM346.878 315H327.95V317H346.878V315ZM328.783 316.553L349.503 285.305L347.837 284.199L327.117 315.447L328.783 316.553Z" fill="#C7CBCB"/>
<g filter="url(#filter0_d_62_304)">
<rect width="225.042" height="149.226" transform="matrix(-0.812468 0.583006 0.583006 0.812468 306.84 110)" fill="url(#pattern0)" shape-rendering="crispEdges"/>
</g>
<defs>
<filter id="filter0_d_62_304" x="121.001" y="99" width="299.838" height="282.442" filterUnits="userSpaceOnUse" color-interpolation-filters="sRGB">
<feFlood flood-opacity="0" result="BackgroundImageFix"/>
<feColorMatrix in="SourceAlpha" type="matrix" values="0 0 0 0 0 0 0 0 0 0 0 0 0 0 0 0 0 0 127 0" result="hardAlpha"/>
<feOffset dx="12" dy="4"/>
<feGaussianBlur stdDeviation="7.5"/>
<feComposite in2="hardAlpha" operator="out"/>
<feColorMatrix type="matrix" values="0 0 0 0 0 0 0 0 0 0 0 0 0 0 0 0 0 0 0.25 0"/>
<feBlend mode="normal" in2="BackgroundImageFix" result="effect1_dropShadow_62_304"/>
<feBlend mode="normal" in="SourceGraphic" in2="effect1_dropShadow_62_304" result="shape"/>
</filter>
<pattern id="pattern0" patternContentUnits="objectBoundingBox" width="1" height="1">
<use xlink:href="#image0_62_304" transform="scale(0.00159784 0.00240964)"/>
</pattern>
</defs>
</svg>
