<?xml version="1.0" encoding="UTF-8"?><svg xmlns="http://www.w3.org/2000/svg" viewBox="0 0 414.32 72.73" fill="black"><defs><style>.cls-1,.cls-2{stroke:black;stroke-miterlimit:10;}.cls-2{fill:none;stroke-width:.85px;}</style></defs><g id="T"><rect y="0" width="18" height="14" rx="5.14" ry="5.14"/><path d="M26.99,0h32C60.65,0,61.99,1.34,61.99,3v7c0,1.66-1.34,3-3,3H25.99c-1.1,0-2-.9-2-2V3C23.99,1.34,25.33,0,26.99,0Z"/><path d="M24,9h15v60c0,1.66-1.34,3-3,3h-9c-1.66,0-3-1.34-3-3V9h0Z"/></g><g id="I"><rect x="88" y="30" width="15" height="42" rx="3" ry="3"/><rect x="88" y="1" width="15" height="25" rx="3" ry="3"/></g><g id="M"><rect x="136" y="47" width="15" height="25" rx="3" ry="3"/><rect x="190" y="0" width="15" height="72" rx="3" ry="3"/><path d="M191.7,0h-.26c-1.07,0-2.08,.52-2.7,1.4l-17.74,25.6c-1.41,2-.5,1.93-2,0L149.88,2.13c-.57-.73-1.42-1.19-2.35-1.26-3.55-.27-12.32-.5-12.69,3.71-.07,.77,.24,1.53,.73,2.13l32.43,40.29s2.8,3,4.9,0l21.47-29.45c.41-.56,.63-1.25,.63-1.94V3.3C195,1.48,193.52,0,191.7,0Z"/></g><g id="E"><rect x="253" y="-19" width="15" height="53" rx="3" ry="3" transform="translate(268 -253) rotate(90)"/><rect x="250.5" y="10.5" width="15" height="48" rx="3" ry="3" transform="translate(292.5 -223.5) rotate(90)"/><rect x="253" y="38" width="15" height="53" rx="3" ry="3" transform="translate(325 -196) rotate(90)"/></g><g id="X"><path d="M366.2,2.6l13.16,17.54c.61,.82,.89,1.87,.64,2.86s-1,2-3,2h-8.49c-1.1,0-2.15-.51-2.82-1.38l-13.09-16.86c-.46-.59-.74-1.31-.75-2.06-.02-1.17,.3-2.7,2.16-2.7l9.01-.82c1.24-.11,2.44,.42,3.19,1.42Z"/><path class="cls-1" d="M400.2,1.17c-1.33,0-2.58,.65-3.34,1.74l-45.02,64.33s-5.95,6.81,11.85,4.51c1.14-.15,2.17-.77,2.83-1.72L410.76,6.56c.68-.97,.95-2.21,.6-3.35s-1.24-2.21-3.45-2.04h-7.72Z"/><path class="cls-1" d="M389.5,34.5l24,30s2,5-4,5h-5.12c-2.01,0-3.9-.92-5.15-2.5l-17.73-22.5,8-10Z"/></g><g id="timer"><line class="cls-2" x1="300.32" y1="48.54" x2="300.32" y2="14.54"/><line class="cls-2" x1="342.03" y1="48.18" x2="342.03" y2="14.18"/><path class="cls-2" d="M300.32,44.04V18.82s11-1.78,21,9.22c0,0,9.35-11.88,20.17-9.94v25.11s-13,.19-20.59-9.99c0,0-4.59,10.82-20.59,10.82Z"/><polygon class="cls-2" points="310.32 38.04 310.32 24.4 317.9 30.96 310.32 38.04"/><polygon class="cls-2" points="331.22 30.96 336.82 38.04 336.82 23.41 331.22 30.96"/><line class="cls-2" x1="317.9" y1="30.96" x2="331.22" y2="30.96"/></g></svg>